<svg width="70" height="71" viewBox="0 0 70 71" fill="none" xmlns="http://www.w3.org/2000/svg">
<rect width="70" height="71" rx="10" fill="#E1251B"/>
<path d="M35.0339 37.0678C26.7442 37.0678 20 30.3236 20 22.0339C20 13.7442 26.7442 7 35.0339 7C43.3236 7 50.0678 13.7442 50.0678 22.0339C50.0678 30.3236 43.3236 37.0678 35.0339 37.0678ZM35.0339 7.7527C27.1582 7.7527 20.7527 14.1607 20.7527 22.0339C20.7527 29.9071 27.1582 36.3151 35.0339 36.3151C42.9097 36.3151 49.3151 29.9071 49.3151 22.0339C49.3151 14.1607 42.9097 7.7527 35.0339 7.7527Z" fill="white"/>
<path d="M33.2765 24.1491L31.476 18.8447H30.4101L28.622 24.1491L26.871 18.8716H25.4688L28.021 26.1339H29.1389L30.9418 20.9371L32.7324 26.1339H33.8379L36.4025 18.8716H35.0274L33.2765 24.1491Z" fill="white"/>
<path d="M45.1823 20.8936C44.9647 20.4403 44.6672 20.0518 44.3008 19.7376C43.9345 19.4234 43.513 19.1812 43.0502 19.0181C42.5847 18.855 42.1054 18.7711 41.6234 18.7711C41.246 18.7711 40.8962 18.8142 40.5877 18.903C40.2792 18.9893 39.9954 19.1068 39.742 19.2459C39.4886 19.3874 39.2572 19.5553 39.0561 19.7472C38.9597 19.8359 38.8688 19.9271 38.7807 20.023V16.1113H37.3125V25.9876H38.7807V24.9444C38.8633 25.0307 38.9515 25.1146 39.0424 25.1962C39.2462 25.3785 39.4776 25.5392 39.7282 25.6783C39.9789 25.815 40.2681 25.9253 40.5822 26.0092C40.8962 26.0908 41.2488 26.1339 41.6234 26.1339C42.1164 26.1339 42.6013 26.05 43.0668 25.8797C43.5323 25.7118 43.951 25.4672 44.3091 25.153C44.6699 24.8388 44.9619 24.4503 45.1823 23.997C45.3999 23.5437 45.5128 23.0233 45.5128 22.4453C45.5101 21.8697 45.3999 21.3469 45.1823 20.8936ZM44.0143 22.4597C44.0143 22.8506 43.9427 23.208 43.805 23.5198C43.6673 23.8291 43.48 24.093 43.2486 24.3016C43.0172 24.5103 42.739 24.671 42.425 24.7813C41.7997 24.9995 41.067 25.0115 40.4224 24.7693C40.1029 24.6494 39.8136 24.4791 39.5602 24.2656C39.3096 24.0522 39.1057 23.786 38.9597 23.4766C38.811 23.1672 38.7366 22.8218 38.7366 22.4453C38.7366 22.0712 38.811 21.7258 38.9597 21.4212C39.1057 21.1166 39.3096 20.8528 39.5602 20.6394C39.8136 20.4259 40.1029 20.2556 40.4224 20.1357C40.7392 20.0158 41.0725 19.9558 41.414 19.9558C41.7639 19.9558 42.0999 20.0134 42.4139 20.1285C42.7252 20.2436 43.0034 20.4115 43.2403 20.6298C43.4772 20.848 43.6673 21.1142 43.8077 21.4188C43.9427 21.7282 44.0143 22.076 44.0143 22.4597Z" fill="white"/>
<path d="M12.68 62.1H16.06L18.86 54.04L21.68 62.1H25.06L29.74 48H25.72L23.28 56.1L20.58 47.96H17.24L14.54 56.1L12.1 48H8L12.68 62.1Z" fill="white"/>
<path d="M31.2838 62H35.0837V54L38.6437 59.44H38.7238L42.3037 53.96V62H46.1637V48H42.0638L38.7238 53.42L35.3838 48H31.2838V62Z" fill="white"/>
<path d="M55.387 62.28C58.487 62.28 60.267 60.94 61.587 59.12L58.667 57.04C57.827 58.06 56.967 58.74 55.507 58.74C53.547 58.74 52.167 57.1 52.167 55V54.96C52.167 52.92 53.547 51.26 55.507 51.26C56.847 51.26 57.767 51.9 58.567 52.9L61.487 50.64C60.247 48.92 58.407 47.72 55.547 47.72C51.307 47.72 48.167 50.92 48.167 55V55.04C48.167 59.22 51.387 62.28 55.387 62.28Z" fill="white"/>
</svg>
